<svg xmlns="http://www.w3.org/2000/svg" xmlns:xlink="http://www.w3.org/1999/xlink" width="248" height="257" viewBox="0 0 248 257">
  <defs>
    <clipPath id="clip-FHSD_Asset_LB1">
      <rect width="248" height="257"/>
    </clipPath>
  </defs>
  <g id="FHSD_Asset_LB1" clip-path="url(#clip-FHSD_Asset_LB1)">
    <path id="Path_7" data-name="Path 7" d="M145.07,66.383A77.712,77.712,0,0,0,83.66,77.016c-16.214,10.791-28.888,27.9-32.009,47.379a59.534,59.534,0,0,0,17.93,52.674c12.481,11.535,29.461,16.28,46.176,16.308,18.091.03,36.108-4.958,52.269-12.909,15.847-7.8,30.537-18.918,40.874-33.364a65.515,65.515,0,0,0,10.349-21.623,80.337,80.337,0,0,0,1.382-33.346,60,60,0,0,0-11.375-26.2,64.361,64.361,0,0,0-21.485-17.816,82.433,82.433,0,0,0-27.408-8.347,104.271,104.271,0,0,0-32.635,1.394A135.6,135.6,0,0,0,94.414,52.091,113.447,113.447,0,0,0,76.869,62.308c-.931.67-1.858,1.354-2.745,2.083a2.793,2.793,0,0,0,0,3.919,2.835,2.835,0,0,0,3.919,0c.337-.277.871-.652.092-.08.576-.423,1.142-.858,1.723-1.274,2.167-1.55,4.408-3,6.692-4.369a125.517,125.517,0,0,1,24.622-11.361,121.109,121.109,0,0,1,34.533-6.612,82.156,82.156,0,0,1,27.142,3.415A66.827,66.827,0,0,1,184.974,52.9a65.451,65.451,0,0,1,10.743,6.971,54.009,54.009,0,0,1,15.64,20.409c.25.564.247.552.523,1.241q.333.828.639,1.667.621,1.7,1.136,3.44a61.994,61.994,0,0,1,1.632,6.977,70.618,70.618,0,0,1,.8,15.45,75.907,75.907,0,0,1-2.269,15.3q-.7,2.661-1.669,5.242-.253.678-.523,1.349c-.09.224-.182.448-.274.671.211-.509,0-.008-.052.118-.408.93-.829,1.853-1.278,2.764-7.168,14.558-19.446,25.994-33,34.581a125.4,125.4,0,0,1-11.536,6.478,114.311,114.311,0,0,1-11.827,5.1,124.348,124.348,0,0,1-12.512,3.89q-3.177.8-6.394,1.432-1.494.289-3,.54-.816.137-1.633.26-.408.062-.816.12c-.106.015-.884.123-.351.051a97.9,97.9,0,0,1-12.665.886q-3.167.014-6.331-.2-1.431-.1-2.857-.245-.645-.066-1.289-.144c-.256-.031-.513-.063-.769-.1.614.079-.436-.063-.54-.078a69.727,69.727,0,0,1-11.587-2.7q-1.3-.428-2.586-.911c-.465-.176-.926-.36-1.388-.543q-.229-.093-.458-.189c.56.233-.382-.166-.477-.207a56.845,56.845,0,0,1-5.29-2.66,53.84,53.84,0,0,1-4.773-3.061,44.6,44.6,0,0,1-4.075-3.312,52.566,52.566,0,0,1-4.249-4.326,40.076,40.076,0,0,1-3.392-4.361A57.31,57.31,0,0,1,59.592,152.1a53.746,53.746,0,0,1-3.012-13.312,55.264,55.264,0,0,1,4.208-26.322A67.612,67.612,0,0,1,75.859,90.43a72.464,72.464,0,0,1,52.755-20.791A70.838,70.838,0,0,1,143.6,71.727c3.463.851,4.941-4.493,1.473-5.344" transform="translate(-11.914 11.945)" fill="#acd7db"/>
  </g>
</svg>
