<svg xmlns="http://www.w3.org/2000/svg" xmlns:xlink="http://www.w3.org/1999/xlink" width="248" height="257" viewBox="0 0 248 257">
  <defs>
    <clipPath id="clip-FHSD_Asset_B5">
      <rect width="248" height="257"/>
    </clipPath>
  </defs>
  <g id="FHSD_Asset_B5" clip-path="url(#clip-FHSD_Asset_B5)">
    <path id="Path_14" data-name="Path 14" d="M554.276,121.8l31.068,53.43a2.913,2.913,0,0,0,4.986,0c7.348-13.3,14.706-26.6,22.6-39.586a360.4,360.4,0,0,1,25.638-37.39,216.53,216.53,0,0,1,29.872-31.1,162.54,162.54,0,0,1,34.5-22.414A122.08,122.08,0,0,1,741.309,33.4c1.736-.2,3.477-.353,5.22-.474a2.956,2.956,0,0,0,2.888-2.887,2.913,2.913,0,0,0-2.888-2.888A126.911,126.911,0,0,0,705.521,37.27a161.789,161.789,0,0,0-36.1,21.693,205.864,205.864,0,0,0-31,30.381,339.6,339.6,0,0,0-26.957,37.682c-8.221,13.137-15.806,26.656-23.309,40.211q-1.4,2.538-2.806,5.077h4.986l-31.067-53.43c-1.868-3.211-6.861-.307-4.987,2.915" transform="translate(-527.862 26.851)" fill="#2c338c"/>
  </g>
</svg>
