<svg xmlns="http://www.w3.org/2000/svg" xmlns:xlink="http://www.w3.org/1999/xlink" width="248" height="257" viewBox="0 0 248 257">
  <defs>
    <clipPath id="clip-FHSD_Asset_LB2">
      <rect width="248" height="257"/>
    </clipPath>
  </defs>
  <g id="FHSD_Asset_LB2" clip-path="url(#clip-FHSD_Asset_LB2)">
    <path id="Path_34" data-name="Path 34" d="M256.321,127.585q3.531,25.19,7.061,50.378l2.008,14.323c.32,2.287,3.6,2.284,4.632.605q17.871-29.145,38.26-56.64Q328.46,109.056,351,83.725q12.787-14.382,26.281-28.114c2.287-2.329-1.294-5.916-3.584-3.584q-24.036,24.473-45.846,51-21.836,26.577-41.285,55-10.861,15.887-20.921,32.3l4.632.606q-3.529-25.189-7.061-50.378l-2.007-14.323a2.552,2.552,0,0,0-3.118-1.771,2.6,2.6,0,0,0-1.77,3.118" transform="translate(-178 5.73)" fill="#acd7db"/>
  </g>
</svg>
