<svg xmlns="http://www.w3.org/2000/svg" xmlns:xlink="http://www.w3.org/1999/xlink" width="415" height="257" viewBox="0 0 415 257">
  <defs>
    <clipPath id="clip-FHSD_Asset_W6">
      <rect width="415" height="257"/>
    </clipPath>
  </defs>
  <g id="FHSD_Asset_W6" clip-path="url(#clip-FHSD_Asset_W6)">
    <path id="Path_22" data-name="Path 22" d="M693.362,227.1c4.641-3.882,8.985-8.126,13.285-12.378,5.577-5.513,11.038-11.142,16.455-16.809,9.683-10.129,19.209-20.407,28.721-30.7,7.437-8.047,14.615-16.352,21.391-24.966,6.315-8.029,12.6-17.024,14.221-27.345a28.6,28.6,0,0,0-1.414-15.214,25.028,25.028,0,0,0-8.512-10.878c-7.806-5.739-18.368-6.253-27.5-4-9.475,2.337-18.025,7.711-25.267,14.132a73.644,73.644,0,0,0-17.523,23.417c-1.067,2.24-2.026,4.533-2.9,6.857l4.392-.574c-3.479-6.66-7.872-13.1-14.669-16.726a22.758,22.758,0,0,0-18.911-1.461c-12.959,5.137-17.785,20.683-17.764,33.5.021,12.878,4.228,26.254,12.543,36.194a77.506,77.506,0,0,0,13.449,12.2,149.43,149.43,0,0,0,16.222,10.376c9.082,5.077,18.707,9.841,28.682,12.9.712.219,1.43.423,2.154.6,3,.743,4.281-3.889,1.276-4.633a74.355,74.355,0,0,1-10.214-3.552c-4.617-1.89-9.611-4.251-14.247-6.656-10.468-5.431-20.865-11.712-29.44-19.885a47.166,47.166,0,0,1-9.715-12.805,55.685,55.685,0,0,1-5.392-17.331,48.164,48.164,0,0,1,.7-18.143c1.38-5.647,4-11.4,8.445-15.285a17.071,17.071,0,0,1,15.349-3.575C693.711,116,698.574,120.9,702,126.491c.914,1.492,1.75,3.029,2.56,4.58,1.038,1.984,3.719,1.226,4.391-.574a70.9,70.9,0,0,1,14.4-23.5c6.176-6.628,13.8-12.437,22.284-15.753,7.934-3.1,17.71-4.409,25.645-.57a20.67,20.67,0,0,1,8.894,7.938,22.539,22.539,0,0,1,2.8,13.517c-.831,9.671-6.706,18.4-12.486,25.857-6.507,8.4-13.475,16.471-20.655,24.3q-13.623,14.85-27.5,29.467c-9.6,10.1-19.229,20.307-29.642,29.586q-1.348,1.2-2.73,2.361a2.42,2.42,0,0,0,0,3.4,2.455,2.455,0,0,0,3.4,0" transform="translate(-515.368 -27.57)" fill="#fff"/>
  </g>
</svg>
