<svg xmlns="http://www.w3.org/2000/svg" xmlns:xlink="http://www.w3.org/1999/xlink" width="248" height="257" viewBox="0 0 248 257">
  <defs>
    <clipPath id="clip-FHSD_Asset_G9">
      <rect width="248" height="257"/>
    </clipPath>
  </defs>
  <g id="FHSD_Asset_G9" clip-path="url(#clip-FHSD_Asset_G9)">
    <path id="Path_25" data-name="Path 25" d="M461.169,561.9a28.564,28.564,0,0,1-39.194-33.564c1.388-5.023,5.052-10.8,10.729-11.387a1.962,1.962,0,0,0,1.9-1.68,1.926,1.926,0,0,0-1.388-2.126c-6.3-1.347-7.65-9.663-8.165-14.987a49.557,49.557,0,0,1,3.039-23.588c5.081-12.37,18.052-22.722,32-20.1,7.153,1.344,13.625,5.65,16.779,12.32.669,1.415,3.321,1.178,3.542-.463,2.192-16.3,19.192-24.42,33.985-25.662,14.237-1.2,29.671,3.741,36.222,17.369,3.111,6.471,3.746,14.345.461,20.872-.928,1.842,1.564,4.146,3.043,2.348,4.175-5.073,11.38-2.731,15.659.863a49.183,49.183,0,0,1,12.295,16.344,37.506,37.506,0,0,1,3.782,19.676,27.623,27.623,0,0,1-7.02,15.641c-4.269,4.716-10.115,7.9-16.571,7.878a1.98,1.98,0,0,0-1.938,1.937,29.319,29.319,0,0,1-13.342,22.051,28.234,28.234,0,0,1-25.537,2.218,28.669,28.669,0,0,1-12.136-9.017,1.946,1.946,0,0,0-3.043.392,26.248,26.248,0,0,1-15.332,13.044,25.305,25.305,0,0,1-20.115-2.206,25.622,25.622,0,0,1-8.791-8.123c-1.37-2.071-4.728-.132-3.346,1.956a30.1,30.1,0,0,0,19.7,12.965,29.218,29.218,0,0,0,22.534-5.454,29.712,29.712,0,0,0,8.7-10.226l-3.043.392A33.18,33.18,0,0,0,533.354,573.8,32.723,32.723,0,0,0,564.2,543.588l-1.937,1.938c13.61.057,24.94-11.838,27.122-24.781a40.13,40.13,0,0,0-3.2-22.548,52.455,52.455,0,0,0-13.363-18.562c-3.183-2.753-6.94-4.878-11.211-5.165a12.222,12.222,0,0,0-10.238,4.039l3.043,2.348c7.031-13.968-.43-31.029-13.282-38.6a44.488,44.488,0,0,0-23.554-5.649,53.04,53.04,0,0,0-24.721,6.485c-8.2,4.658-14.909,12.634-16.194,22.194l3.541-.463c-3.188-6.742-9.6-11.515-16.686-13.532a29.534,29.534,0,0,0-21.964,2.582c-15.43,8.194-21.706,26.1-20.512,42.753.532,7.424,2.371,18.371,11.138,20.244q.256-1.9.515-3.806c-6.178.641-10.76,5.219-13.188,10.715a30.641,30.641,0,0,0-1.7,18.171,32.25,32.25,0,0,0,24.458,25.333,33.294,33.294,0,0,0,20.854-2.046,1.95,1.95,0,0,0,.7-2.651,1.986,1.986,0,0,0-2.651-.7" transform="translate(-379.169 -378.598)" fill="#d0df9d"/>
  </g>
</svg>
