<svg xmlns="http://www.w3.org/2000/svg" xmlns:xlink="http://www.w3.org/1999/xlink" width="457" height="257" viewBox="0 0 457 257">
  <defs>
    <clipPath id="clip-FHSD_Asset_B20">
      <rect width="457" height="257"/>
    </clipPath>
  </defs>
  <g id="FHSD_Asset_B20" clip-path="url(#clip-FHSD_Asset_B20)">
    <path id="Path_16" data-name="Path 16" d="M272.427,338.2a23.958,23.958,0,0,1,8.675-24.36,22.185,22.185,0,0,1,24.764-1.462,23.684,23.684,0,0,1,9.974,10.908c.729,1.605,3.12,1.684,4.241.547a70.692,70.692,0,0,1,35.366-19.518,67.515,67.515,0,0,1,40.289,3.955,70.31,70.31,0,0,1,20.087,12.93,2.778,2.778,0,0,0,3.818,0,44.343,44.343,0,0,1,27.817-10.463,43.518,43.518,0,0,1,27.015,9.173,46.058,46.058,0,0,1,11.01,12.242,2.735,2.735,0,0,0,4.935-.645,29.435,29.435,0,0,1,20.269-18.86c9.342-2.416,19,.987,25.654,7.77a29.578,29.578,0,0,1,7.745,14.136,2.719,2.719,0,0,0,4.513,1.192,34.812,34.812,0,0,1,38.571-8.784c11.515,4.793,18.924,17.575,19.874,29.721.522,6.672-1.021,13.36-6.088,18.012a2.752,2.752,0,0,0-.422,3.272c6.472,12.216,5.681,28.968-4.735,38.814-9.506,8.985-24.451,9.861-34.2.739a17.574,17.574,0,0,1-5.086-18.163c.952-3.348-4.256-4.777-5.207-1.435-6.194,21.753-37.439,24.733-52.389,10.454a25.278,25.278,0,0,1-7.664-15.23,2.715,2.715,0,0,0-5.3-.717,44.829,44.829,0,0,1-24.347,24.7c-10.123,4.179-22.552,5.473-32.529.141a20.515,20.515,0,0,1-10.535-13.328c-.521-2.084-3.983-2.831-4.935-.645-4.4,10.091-13.341,16.119-23.879,18.491-11.141,2.507-22.384.959-31.911-5.525a39.175,39.175,0,0,1-12.651-14.357c-1.169-2.251-4.162-1.357-4.934.645a30.982,30.982,0,0,1-21.538,18.636,33.152,33.152,0,0,1-26.166-5.5,22.794,22.794,0,0,1-8.225-12.337c-.6-2.166-3.834-2.733-4.935-.645-5.793,10.992-19.929,14.99-31.237,10.777-6.9-2.569-12.2-9.022-15.606-15.32-2.924-5.406-4.272-11.743-2.4-17.72a16.444,16.444,0,0,1,10-10.64c1.54-.506,2.653-2.455,1.613-3.966-6.21-9.025-7.139-21.738-2.577-31.667A24.8,24.8,0,0,1,249.52,322.6a33.564,33.564,0,0,1,14.487-4.085,41.382,41.382,0,0,1,17.332,2.626c3.249,1.241,4.655-3.977,1.436-5.207-10.921-4.173-23.993-4.019-34.528,1.229-11.848,5.9-17.827,19.16-17.263,32.045a37.173,37.173,0,0,0,6.091,19.358l1.613-3.966a21.39,21.39,0,0,0-12.572,11.35,26.4,26.4,0,0,0-.122,20.941,44.416,44.416,0,0,0,7.888,12.507,29.826,29.826,0,0,0,30.937,10.292,28.842,28.842,0,0,0,19.207-14.254l-4.935-.645c2.981,10.836,11.721,18.145,22.381,20.982,11.3,3.008,22.936,1.248,32.271-5.988a36.429,36.429,0,0,0,11.691-15.8l-4.935.645a44.682,44.682,0,0,0,29.436,22.763c11.554,2.575,25.2.344,35.2-6.068a34.63,34.63,0,0,0,13.134-15.3l-4.935-.645c3.237,12.942,15.317,19.717,27.931,20.66,13.208.987,27.043-4.192,36.83-13a51.762,51.762,0,0,0,13.064-19.171l-5.3-.718a31.4,31.4,0,0,0,7.321,17.024,35.279,35.279,0,0,0,15.018,9.9c11.615,4.127,25.933,3.193,36.236-3.9a30.321,30.321,0,0,0,12.085-16.815l-5.207-1.435a22.807,22.807,0,0,0,4.189,20.955,29.911,29.911,0,0,0,19.588,10.472c16.274,1.8,30.8-10.729,34.1-26.191a41.47,41.47,0,0,0-3.981-27.916q-.211,1.635-.422,3.272c11.269-10.35,8.749-28.1,2.006-40.226A36.523,36.523,0,0,0,592,323.3a40.026,40.026,0,0,0-47.22,8.635l4.512,1.191a35.335,35.335,0,0,0-21.574-24.675c-10.793-4.176-22.736-1.39-31.572,5.747a34.46,34.46,0,0,0-10.936,15.881l4.935-.645a51.79,51.79,0,0,0-24.639-20.74,47.961,47.961,0,0,0-32.763-.872,50.82,50.82,0,0,0-16.921,9.567h3.818a75.457,75.457,0,0,0-40.184-19.172,73.54,73.54,0,0,0-43.165,7.191,75.892,75.892,0,0,0-20.03,14.614l4.241.547c-4.49-9.887-14.915-16.449-25.709-16.72-11.093-.279-21.367,6.963-25.82,16.975a28.689,28.689,0,0,0-1.754,18.819c.85,3.368,6.059,1.941,5.207-1.435" transform="translate(-189.89 -235.509)" fill="#2c338c"/>
  </g>
</svg>
