<svg xmlns="http://www.w3.org/2000/svg" xmlns:xlink="http://www.w3.org/1999/xlink" width="248" height="257" viewBox="0 0 248 257">
  <defs>
    <clipPath id="clip-FHSD_Asset_B7">
      <rect width="248" height="257"/>
    </clipPath>
  </defs>
  <g id="FHSD_Asset_B7" clip-path="url(#clip-FHSD_Asset_B7)">
    <g id="Group_4" data-name="Group 4" transform="translate(-0.313 -0.327)">
      <path id="Path_26" data-name="Path 26" d="M763.165,259.948a44.867,44.867,0,0,1,33.151,16.771c8.2,10.14,10.865,23.8,7.984,36.421a43.553,43.553,0,0,1-9.916,19.446l3.014,2.325c5.823-9.667,17.5-14.842,28.6-13.372,11.856,1.57,21.848,9.778,26.744,20.515a41.883,41.883,0,0,1,3.486,19.957c-.137,2.183,3.218,2.571,3.769.51a44.261,44.261,0,0,1,14.609-22.6,42.893,42.893,0,0,1,27.191-9.6,44.2,44.2,0,0,1,17.077,3.433,1.932,1.932,0,0,0,2.36-1.34,1.966,1.966,0,0,0-1.34-2.361,46.941,46.941,0,0,0-56.577,16.464,46.967,46.967,0,0,0-7.02,14.984l3.769.51c.832-13.248-4.1-27.072-14.449-35.684-9.827-8.18-23.507-11.374-35.6-6.572a32.347,32.347,0,0,0-15.924,13.219c-1.1,1.834,1.535,3.971,3.014,2.325a48.79,48.79,0,0,0,11.585-39.675c-2.106-13.928-10.989-26.045-23.094-33.064a47.531,47.531,0,0,0-22.424-6.45c-2.47-.069-2.468,3.769,0,3.838" transform="translate(-730 -161)" fill="#2c338c"/>
      <path id="Path_27" data-name="Path 27" d="M920.714,314.957c-.365-11.511,6.018-22.814,15.852-28.907a30.725,30.725,0,0,1,9.136-3.806c2.539-.607,2.731-4.854,0-5.331A33.854,33.854,0,0,1,926.019,265.8a32.972,32.972,0,0,1-4.165-36.214l-5.051-2.13c-1.461,4.4-6.129,6.831-10.545,8.114a53.263,53.263,0,0,1-16.273,1.721,68.361,68.361,0,0,1-32.372-9.325,65.545,65.545,0,0,1-14.844-11.855c-1.336-1.43-4.254-.835-4.62,1.22a52.347,52.347,0,0,1-16.133,29.311,50.581,50.581,0,0,1-32.851,13.1,52.12,52.12,0,0,1-20.863-3.77,2.783,2.783,0,0,0-3.4,1.93,2.832,2.832,0,0,0,1.931,3.4,56.424,56.424,0,0,0,69.114-22.921,56.114,56.114,0,0,0,7.533-19.58l-4.62,1.22a72.665,72.665,0,0,0,31.882,19.658,73.748,73.748,0,0,0,18.274,3.107A59.706,59.706,0,0,0,907.386,241c6.4-1.786,12.554-5.466,14.747-12.071.981-2.954-3.613-4.92-5.052-2.13a39.158,39.158,0,0,0-2.8,28.765,38.327,38.327,0,0,0,16.242,21.328,37.721,37.721,0,0,0,13.707,5.355v-5.331c-13.137,3.142-23.776,13.937-27.586,26.783a35.839,35.839,0,0,0-1.46,11.261c.113,3.549,5.641,3.564,5.528,0" transform="translate(-730 -161)" fill="#2c338c"/>
    </g>
  </g>
</svg>
