<svg xmlns="http://www.w3.org/2000/svg" xmlns:xlink="http://www.w3.org/1999/xlink" width="248" height="257" viewBox="0 0 248 257">
  <defs>
    <clipPath id="clip-FHSD_Asset_B15">
      <rect width="248" height="257"/>
    </clipPath>
  </defs>
  <g id="FHSD_Asset_B15" clip-path="url(#clip-FHSD_Asset_B15)">
    <path id="Path_38" data-name="Path 38" d="M522.6,250.586l82.15,9.642,23.259,2.73v-5.205l-66.206.407-18.916.117c-3.364.02-3.336,5.054,0,5.2,22.2,1.005,44.473,1.982,66.459,5.393q9.332,1.447,18.551,3.517v-5.019a319.456,319.456,0,0,1-69.284,6.1q-9.949-.21-19.872-1.036v5.205l57.42,1.875,16.477.539v-5.205L548.8,276.045l-17.953.336v5.2l49.854-2.175,14.138-.617c3.337-.145,3.355-5.351,0-5.205l-49.854,2.175-14.138.617c-3.33.145-3.366,5.268,0,5.2l63.834-1.194,17.953-.335c3.354-.063,3.348-5.1,0-5.205l-57.42-1.876-16.477-.538a2.6,2.6,0,1,0,0,5.205,325.655,325.655,0,0,0,70.916-1.947q9.859-1.349,19.623-3.3c2.519-.5,2.446-4.466,0-5.019-22.074-5-44.691-6.949-67.248-8.172-6.38-.346-12.762-.635-19.145-.924v5.2l66.206-.407,18.916-.117a2.6,2.6,0,1,0,0-5.205l-82.15-9.642-23.259-2.73a2.618,2.618,0,0,0-2.6,2.6,2.666,2.666,0,0,0,2.6,2.6" transform="translate(-451 -134)" fill="#2c338c"/>
  </g>
</svg>
