<svg xmlns="http://www.w3.org/2000/svg" xmlns:xlink="http://www.w3.org/1999/xlink" width="321" height="257" viewBox="0 0 321 257">
  <defs>
    <clipPath id="clip-FHSD_Asset_W19">
      <rect width="321" height="257"/>
    </clipPath>
  </defs>
  <g id="FHSD_Asset_W19" clip-path="url(#clip-FHSD_Asset_W19)">
    <path id="Path_15" data-name="Path 15" d="M2.963,587.063c4.814-8.977,13.513-15.279,23.257-17.965A37.206,37.206,0,0,1,55.6,573.02c4.94,2.958,9.45,6.562,14.223,9.771,4.416,2.968,9.247,5.785,14.557,6.723a21.363,21.363,0,0,0,14.229-2.389c3.958-2.205,7.247-5.454,10.3-8.755,5.608-6.065,11.558-14.552,20.461-15.548,9.644-1.079,17.4,7.018,24.444,12.343,3.811,2.88,7.923,5.579,12.583,6.841A23.394,23.394,0,0,0,180.7,581.1c9.507-3.543,17.009-11.045,26.629-14.3a22.476,22.476,0,0,1,15.744.391c5.652,2.212,10.546,6.132,15.274,9.843,8.632,6.776,19.5,14.408,31.155,11.706a17.2,17.2,0,0,0,7.16-3.659c1.579-1.32-.691-3.57-2.26-2.259-9.369,7.828-23.022.3-31.024-5.881-9.065-7-18.995-15.965-31.353-14.477-10.4,1.252-18.509,8.577-27.424,13.355-4.245,2.276-8.876,4.011-13.765,3.717-4.746-.285-9.033-2.615-12.864-5.271-7.609-5.276-14.626-13.216-24.258-14.534-9.6-1.313-16.827,5.11-22.837,11.708-5.87,6.445-12.188,14.775-21.685,15.232-5.32.256-10.266-1.977-14.718-4.681C69.57,579,65.077,575.4,60.3,572.223a44.636,44.636,0,0,0-14.43-6.722,41.082,41.082,0,0,0-15.183-.588A42.192,42.192,0,0,0,4.485,579.142,37.349,37.349,0,0,0,.2,585.45c-.972,1.812,1.786,3.428,2.759,1.613" transform="translate(22 -446.554)" fill="#fff"/>
  </g>
</svg>
