<svg xmlns="http://www.w3.org/2000/svg" xmlns:xlink="http://www.w3.org/1999/xlink" width="248" height="257" viewBox="0 0 248 257">
  <defs>
    <clipPath id="clip-FHSD_Asset_G4">
      <rect width="248" height="257"/>
    </clipPath>
  </defs>
  <g id="FHSD_Asset_G4" clip-path="url(#clip-FHSD_Asset_G4)">
    <g id="Group_2" data-name="Group 2" transform="translate(-806.236 -1197.004)">
      <path id="Path_17" data-name="Path 17" d="M530.537,16.9a543.608,543.608,0,0,1-1.684,60.081q-.713,8.508-1.694,16.991h6q.084-.96.169-1.92a3.022,3.022,0,0,0-3-3,3.061,3.061,0,0,0-3,3q-.086.96-.169,1.92a3.022,3.022,0,0,0,3,3,3.069,3.069,0,0,0,3-3,543.62,543.62,0,0,0,3.579-60q.035-8.538-.2-17.074c-.1-3.851-6.1-3.866-6,0" transform="translate(400 1270)" fill="#d0df9d"/>
      <path id="Path_18" data-name="Path 18" d="M496.284,58.761a277.634,277.634,0,0,1,52.787-1.246Q556.553,58.055,564,59a3.052,3.052,0,0,0,.81-5.986l-1.954-.362a3.13,3.13,0,0,0-3.749,2.128,3.074,3.074,0,0,0,2.128,3.749l1.955.362.81-5.986a277.667,277.667,0,0,0-52.777-1.621q-7.486.488-14.938,1.381a3.143,3.143,0,0,0-3.048,3.048c0,1.5,1.4,3.243,3.048,3.047" transform="translate(400 1270)" fill="#d0df9d"/>
      <path id="Path_19" data-name="Path 19" d="M513.052,24.315q15.313,28.568,32.558,56.041,4.852,7.725,9.854,15.357c1.684,2.57,5.836.171,4.139-2.419q-17.762-27.114-33.64-55.4-4.464-7.956-8.772-16c-1.458-2.72-5.6-.3-4.139,2.419" transform="translate(400 1270)" fill="#d0df9d"/>
      <path id="Path_20" data-name="Path 20" d="M509.614,88.347,551.6,36.156l11.9-14.8a3.4,3.4,0,0,0,0-4.67c-1.156-1.156-3.546-1.4-4.67,0L516.849,68.877q-5.952,7.4-11.9,14.8a3.4,3.4,0,0,0,0,4.67c1.156,1.156,3.546,1.4,4.67,0" transform="translate(400 1270)" fill="#d0df9d"/>
    </g>
  </g>
</svg>
