<svg xmlns="http://www.w3.org/2000/svg" xmlns:xlink="http://www.w3.org/1999/xlink" width="248" height="257" viewBox="0 0 248 257">
  <defs>
    <clipPath id="clip-FHSD_Asset_G13">
      <rect width="248" height="257"/>
    </clipPath>
  </defs>
  <g id="FHSD_Asset_G13" clip-path="url(#clip-FHSD_Asset_G13)">
    <g id="Group_7" data-name="Group 7" transform="translate(-978.484 -1699.707)">
      <path id="Path_1" data-name="Path 1" d="M740.633,594.428a11.245,11.245,0,0,0,5.893,6.746,9.553,9.553,0,0,0,8.015-.108c3.872-1.772,6.284-6.015,6.913-10.094.654-4.242-.263-9.017-3.724-11.869a10.254,10.254,0,0,0-7.03-2.478,9.819,9.819,0,0,0-6.232,2.952,15.514,15.514,0,0,0-3.835,14.851c.775,2.52,4.743,1.445,3.963-1.092a11.492,11.492,0,0,1,1.845-9.77A10.531,10.531,0,0,1,748,581.912c.031-.026.308-.232.077-.063.166-.122.338-.236.513-.344s.351-.208.533-.3q.18-.093.366-.175c-.18.077-.156.072.072-.017a5.029,5.029,0,0,1,4.4.469,6.192,6.192,0,0,1,2.907,3.168c.264.561-.072-.206.057.141.057.154.114.307.165.463a11.142,11.142,0,0,1,.306,1.152q.062.294.108.592c-.067-.431.022.225.024.256a12.606,12.606,0,0,1,.047,1.428,8.068,8.068,0,0,1-.243,2.115q-.132.606-.318,1.2-.091.3-.2.586c-.047.129-.1.257-.146.385q.115-.262-.033.074a8.716,8.716,0,0,1-2.616,3.56,5.8,5.8,0,0,1-4.431,1.282,6.789,6.789,0,0,1-4.987-4.546,2.1,2.1,0,0,0-2.528-1.436,2.075,2.075,0,0,0-1.435,2.528" transform="translate(400 1270)" fill="#d0df9d"/>
      <path id="Path_2" data-name="Path 2" d="M730.532,542.165c4.211,1.358,8.13-1.777,10.24-5.165a23.337,23.337,0,0,0,1.992-4.5c1.289-3.612,2.456-7.816,2.047-11.679-.223-2.1-.951-4.336-2.927-5.426-2.239-1.236-4.706-.616-6.881.421a14.3,14.3,0,0,0-4.975,4.6,28.536,28.536,0,0,0-3.7,6.827,16.523,16.523,0,0,0-1.176,8.589,8.108,8.108,0,0,0,5.38,6.333,3.024,3.024,0,0,0,3.692-2.1,3.069,3.069,0,0,0-2.1-3.692c.5.2.263.129-.074-.059-.156-.087-.3-.213-.462-.29-.288-.14.3.167.26.2a3.207,3.207,0,0,1-.253-.234,1.548,1.548,0,0,0-.175-.186c-.24-.165.285.468.153.211-.087-.169-.212-.337-.311-.5-.342-.562.079.073.02.1s-.415-1.6-.289-.978c.1.5-.005-.116-.013-.25-.014-.225-.019-.449-.016-.674,0-.2.01-.4.023-.6.023-.346.129-.887,0-.223a22.627,22.627,0,0,1,.7-2.869c.154-.473.333-.935.51-1.4.19-.5-.188.39.106-.242.115-.245.227-.492.345-.735a26.864,26.864,0,0,1,1.57-2.783c.256-.4.526-.781.8-1.164.407-.569-.23.251.1-.136.151-.177.3-.36.448-.536.266-.307.542-.606.832-.89.145-.142.295-.278.444-.415.535-.49-.013.045-.045.007-.016-.019.772-.5.845-.541.186-.1.389-.175.573-.279-.526.3-.193.071.159-.046.2-.067,1.254-.33.669-.2-.523.116-.089.026.071.02.656-.028-.191-.048-.2-.05.071.01.318.129.369.108-.089.035-.789-.369-.343-.113.364.209-.713-.492-.246-.178s-.226.011-.165-.24a1.479,1.479,0,0,0,.2.336c.041.024.034.137.075.156-.026-.012-.219-.655-.192-.44a7.723,7.723,0,0,0,.242.937c.127.461-.05-.733-.031-.239.006.174.029.347.038.52.018.371.016.742,0,1.112s-.041.735-.077,1.1a4.805,4.805,0,0,0-.059.526c-.054-.024.11-.718.034-.263-.019.12-.036.24-.055.36a36.233,36.233,0,0,1-1.2,4.992c-.256.822-.537,1.638-.847,2.442-.074.194-.153.386-.229.579-.237.6.285-.623.019-.047-.136.293-.265.588-.41.876a8.242,8.242,0,0,1-1.374,2,4.174,4.174,0,0,1-1.673,1.271c.492-.216-.642.169-.3.073.369-.1-.445-.054-.077.013.313.057-.494-.144-.485-.141a3,3,0,0,0-1.6,5.789" transform="translate(400 1270)" fill="#d0df9d"/>
      <path id="Path_3" data-name="Path 3" d="M762.662,525.828l-1.354-.892a2.761,2.761,0,0,0-3.753.984q-13.855,27.366-27.71,54.733-3.943,7.786-7.885,15.574l5.014,2.114q.337-1.368.676-2.738c.845-3.428-4.444-4.89-5.291-1.459q-.338,1.37-.676,2.739c-.719,2.913,3.562,4.983,5.014,2.114q13.855-27.367,27.71-54.734,3.944-7.786,7.885-15.574l-3.753.984,1.354.893c2.956,1.949,5.708-2.8,2.769-4.738" transform="translate(400 1270)" fill="#d0df9d"/>
      <path id="Path_4" data-name="Path 4" d="M721.8,529.227c-4.12-4.778-11.3-2.99-15.329.844a33.3,33.3,0,0,0-5.653,7.919,94.8,94.8,0,0,0-4.712,9.554,95.989,95.989,0,0,0-6.152,20.349c-1.241,6.784-2.58,14.654.121,21.246,2.418,5.9,7.887,9.727,14.371,8.641,6.6-1.105,11.181-6.449,14.122-12.092a77.118,77.118,0,0,0,8.128-40.771,76.128,76.128,0,0,0-1.746-11.719c-.826-3.552-2.125-7.242-4.842-9.807-2.473-2.335-6.155-3.806-9.514-2.637-3.068,1.068-5.567,4.129-5.145,7.489A1.71,1.71,0,0,0,707.1,529.9a1.663,1.663,0,0,0,1.653-1.653,4.21,4.21,0,0,1,4.03-4.582c2.662-.153,5.094,1.714,6.473,3.851a23.661,23.661,0,0,1,2.869,8.242,71.626,71.626,0,0,1,1.231,8.724,75.44,75.44,0,0,1-5.862,35.775c-2.206,5.082-5.061,10.541-10.215,13.148a10.676,10.676,0,0,1-7.825.907A9.9,9.9,0,0,1,694,589.677c-3.1-5.287-2.23-12.055-1.369-17.838a94.378,94.378,0,0,1,4.475-17.851,81.947,81.947,0,0,1,8.939-18.236c1.577-2.336,3.655-4.777,6.425-5.682,2.449-.8,5.237-.539,6.991,1.494,1.391,1.614,3.72-.733,2.337-2.337" transform="translate(400 1270)" fill="#d0df9d"/>
      <path id="Path_5" data-name="Path 5" d="M658.286,547.662a62.8,62.8,0,0,0-4.049,17.818c-.415,5.821,0,12.144,2.143,17.625,1.927,4.92,5.66,9.468,11.05,10.643,5.138,1.12,10.123-1.392,13.292-5.389,3.612-4.556,4.587-10.405,5.249-16.021a177.4,177.4,0,0,0,1.212-19.549,174.88,174.88,0,0,0-.933-19.565c-.43-4.086-1.992-9.127-6.538-10.246-5.563-1.37-9.909,4.153-12.774,8.068a71.546,71.546,0,0,0-8.652,16.616c-.84,2.174,2.658,3.115,3.489.962a73.613,73.613,0,0,1,6.4-12.987,41.675,41.675,0,0,1,4.453-5.887c1.279-1.392,2.811-2.964,4.764-3.3,3.391-.59,4.819,3.507,5.168,6.146a141.764,141.764,0,0,1,.995,17.011q.091,8.574-.639,17.129c-.443,5.192-.775,10.775-2.825,15.635-1.619,3.838-4.964,7.641-9.367,8.03-4.68.413-8.445-3.208-10.359-7.125-2.485-5.086-2.868-11.321-2.57-16.883a59.064,59.064,0,0,1,3.976-17.766c.829-2.179-2.668-3.121-3.489-.962" transform="translate(400 1270)" fill="#d0df9d"/>
      <path id="Path_6" data-name="Path 6" d="M646.593,523.547q-1.974,26.79-3.949,53.58-.561,7.6-1.121,15.2H647.3q-.02-1.969-.04-3.939c-.037-3.712-5.809-3.721-5.772,0l.039,3.939a2.887,2.887,0,0,0,5.773,0q1.974-26.79,3.949-53.58.559-7.6,1.12-15.2a2.911,2.911,0,0,0-2.886-2.886,2.942,2.942,0,0,0-2.886,2.886" transform="translate(400 1270)" fill="#d0df9d"/>
    </g>
  </g>
</svg>
