<svg xmlns="http://www.w3.org/2000/svg" xmlns:xlink="http://www.w3.org/1999/xlink" width="248" height="257" viewBox="0 0 248 257">
  <defs>
    <clipPath id="clip-FHSD_Asset_G17">
      <rect width="248" height="257"/>
    </clipPath>
  </defs>
  <g id="FHSD_Asset_G17" clip-path="url(#clip-FHSD_Asset_G17)">
    <g id="Group_8" data-name="Group 8" transform="translate(-1.242 0.25)">
      <path id="Path_8" data-name="Path 8" d="M31.211,376.219c13.754-10.286,31.754-11.842,47.971-7.853,17.119,4.211,32.664,13.761,46.55,24.373a197.972,197.972,0,0,1,34.236,33.822,202.763,202.763,0,0,1,25.052,40.9,195.179,195.179,0,0,1,14.5,45.869q.54,2.937.987,5.889c.27,1.767,2.492,2.743,4.068,2.31a3.391,3.391,0,0,0,2.309-4.068,199.191,199.191,0,0,0-13.819-48.056,203.948,203.948,0,0,0-24.842-42.894,203.211,203.211,0,0,0-34.7-36c-14.126-11.362-29.914-21.579-47.321-27.05-17.243-5.42-36.838-5.448-52.936,3.531a48.333,48.333,0,0,0-5.4,3.513,3.408,3.408,0,0,0-1.185,4.524c.823,1.407,3.084,2.262,4.524,1.186" transform="translate(-7 -321)" fill="#d0df9d"/>
      <path id="Path_9" data-name="Path 9" d="M157.726,477.03l37.564,47.7,10.776,13.684c1.61,2.043,4.934.265,4.928-2.041a142.906,142.906,0,0,1,11.416-56.423,145.321,145.321,0,0,1,7.379-14.8l-4.533.584q3.565,4.292,7.13,8.582a2.908,2.908,0,0,0,4.082,0,2.949,2.949,0,0,0,0-4.082l-7.13-8.582c-1.2-1.443-3.678-.914-4.533.585a149.843,149.843,0,0,0-18.645,57.178,145.818,145.818,0,0,0-.939,16.959l4.927-2.041-37.563-47.7-10.777-13.684c-.965-1.226-3.071-1.011-4.082,0a2.959,2.959,0,0,0,0,4.082" transform="translate(-7 -321)" fill="#d0df9d"/>
    </g>
  </g>
</svg>
