<svg xmlns="http://www.w3.org/2000/svg" xmlns:xlink="http://www.w3.org/1999/xlink" width="248" height="257" viewBox="0 0 248 257">
  <defs>
    <clipPath id="clip-FHSD_Asset_LB11">
      <rect width="248" height="257"/>
    </clipPath>
  </defs>
  <g id="FHSD_Asset_LB11" clip-path="url(#clip-FHSD_Asset_LB11)">
    <path id="Path_28" data-name="Path 28" d="M311.914,454.248a29.878,29.878,0,0,0-25.1,5.2A31.328,31.328,0,0,0,274.1,482.837a37.156,37.156,0,0,0,9.106,26.148c6.332,7.391,15.751,11.77,25.283,13.069,20.012,2.729,38.923-8.283,50.139-24.409,5.746-8.261,8.789-19.064,3.84-28.458-4.889-9.28-16.5-11.7-25.906-8.85-9.677,2.93-18.45,10.007-25.479,17.085A72.568,72.568,0,0,0,295.024,501.5c-6.952,17.376-4.828,38.53,7.667,52.891,11.628,13.367,33.176,17.871,48.634,8.589,8-4.806,14.58-13.729,13.444-23.453-1.214-10.378-9.977-17.226-20.345-15.464-18.562,3.157-26,26.3-19.623,42.126,6.875,17.064,26.824,23.5,43.244,16.288a29.715,29.715,0,0,0,10.056-7.26c2.136-2.365,1.5-5.382-.926-7.183-6.186-4.583-15.052-3.445-20.784,1.289-5.971,4.93-7.547,13.861-5.051,20.963,2.669,7.59,9.511,13.008,17.249,14.83,8.826,2.079,17.9-.373,25.532-4.938,5.047-3.017.452-10.929-4.618-7.9-5.023,3-10.876,5.108-16.815,4.336-4.885-.634-9.8-3.333-12.1-7.823-1.909-3.736-1.813-9.032,1.287-12.124a8.179,8.179,0,0,1,10.686-.736q-.465-3.592-.926-7.183c-8.244,9.13-24.156,10.461-33.274,1.763-8.864-8.455-9.061-24.429-.352-33.075,3.979-3.947,12.147-7.26,16.084-1.461,4.075,6,.12,13.3-4.828,17.336-10.222,8.327-26.4,6.549-36.206-1.552-11.122-9.185-14.829-25.214-11.94-38.943,3.179-15.1,13.446-28.02,25.74-36.959,5.991-4.36,13.551-9.172,21.293-7.069,7.434,2.02,8.869,9.963,6.713,16.491-2.375,7.185-8.18,13.474-13.906,18.209a43.673,43.673,0,0,1-20.48,9.476c-14.264,2.344-30.443-4.441-35.547-18.653-2.3-6.395-2.585-13.8.681-19.933a22.919,22.919,0,0,1,14.7-11.359,18.725,18.725,0,0,1,9.175.051c5.706,1.459,8.139-7.359,2.433-8.82" transform="translate(-211.029 -401.373)" fill="#acd7db"/>
  </g>
</svg>
