<svg xmlns="http://www.w3.org/2000/svg" xmlns:xlink="http://www.w3.org/1999/xlink" width="248" height="257" viewBox="0 0 248 257">
  <defs>
    <clipPath id="clip-FHSD_Asset_B12">
      <rect width="248" height="257"/>
    </clipPath>
  </defs>
  <g id="FHSD_Asset_B12" clip-path="url(#clip-FHSD_Asset_B12)">
    <g id="Group_6" data-name="Group 6" transform="translate(-29.571 -27.416)">
      <path id="Path_31" data-name="Path 31" d="M715.466,388.762A155.47,155.47,0,0,0,675.923,349.4c-2.177-1.5-5.427-.407-6.692,1.754a4.989,4.989,0,0,0,1.754,6.689A142.429,142.429,0,0,1,707.023,393.7a5.016,5.016,0,0,0,6.689,1.754c2.143-1.253,3.27-4.51,1.754-6.689" transform="translate(-566 -200.894)" fill="#2c338c"/>
      <path id="Path_32" data-name="Path 32" d="M710.93,395.437q-5.818-27.254-11.638-54.505c-.851-3.984-5.516-6.3-9.28-5.271a7.694,7.694,0,0,0-5.271,9.285q5.818,27.25,11.638,54.505c.851,3.986,5.516,6.3,9.28,5.269a7.688,7.688,0,0,0,5.271-9.283" transform="translate(-545.441 -218)" fill="#2c338c"/>
      <path id="Path_33" data-name="Path 33" d="M709.384,393.4q10.013-23.525,20.028-47.053c1.151-2.7.81-5.825-1.951-7.439-2.285-1.336-6.282-.766-7.439,1.951q-10.013,23.525-20.029,47.053c-1.15,2.7-.807,5.827,1.951,7.439,2.285,1.336,6.282.766,7.439-1.951" transform="translate(-526.36 -214.394)" fill="#2c338c"/>
    </g>
  </g>
</svg>
