<svg xmlns="http://www.w3.org/2000/svg" xmlns:xlink="http://www.w3.org/1999/xlink" width="248" height="257" viewBox="0 0 248 257">
  <defs>
    <clipPath id="clip-FHSD_Asset_LB16">
      <rect width="248" height="257"/>
    </clipPath>
  </defs>
  <g id="FHSD_Asset_LB16" clip-path="url(#clip-FHSD_Asset_LB16)">
    <path id="Path_37" data-name="Path 37" d="M326.833,272.782q24.643-35.046,49.286-70.091l13.938-19.822-3.5-1.477L366.5,248.4q-2.865,9.571-5.731,19.144c-.663,2.215,2.288,3.133,3.5,1.476l42.243-57.654,11.922-16.271-3.5-1.477q-9.277,23.17-18.556,46.34L391.112,253.1c-.72,1.8,1.974,3.221,3.2,1.865l42.487-46.89-3.2-1.865-18.081,55.372c-.582,1.781,1.946,3.3,3.2,1.864l43.241-49.519,12.121-13.88-3.2-1.864q-8.639,26.46-17.276,52.922l-4.936,15.121a1.93,1.93,0,0,0,3.2,1.864l41.286-42.961-3.2-1.865-11.637,30.7c-1.521,4.012-2.914,9.187,1.4,12.01,2.872,1.878,7.072,1.357,9.761-.6,3.959-2.882,4.972-8.048,5.66-12.587a1.981,1.981,0,0,0-1.339-2.357,1.928,1.928,0,0,0-2.357,1.338c-.5,3.3-.976,7.2-3.363,9.756-1.491,1.593-4.517,2.545-6.449,1.13-1.27-.93-1.19-2.652-.857-4.031a52.818,52.818,0,0,1,2.2-6.2l5.025-13.256,5.643-14.884c.7-1.833-1.941-3.177-3.2-1.864l-41.286,42.961,3.2,1.865Q461,240.78,469.64,214.318l4.935-15.121c.582-1.781-1.945-3.3-3.2-1.864l-43.242,49.519-12.12,13.88q1.6.933,3.2,1.864L437.3,207.225a1.93,1.93,0,0,0-3.2-1.864l-42.487,46.89,3.2,1.864q9.277-23.171,18.556-46.34l5.262-13.141a1.9,1.9,0,0,0-1.11-2.261,1.954,1.954,0,0,0-2.393.784L372.88,250.811l-11.922,16.272,3.5,1.477q10.031-33.5,20.059-67.005l5.731-19.144c.655-2.188-2.307-3.177-3.5-1.476Q362.1,215.98,337.462,251.026l-13.938,19.822c-1.422,2.021,1.9,3.939,3.309,1.934" transform="translate(-285 -98)" fill="#acd7db"/>
  </g>
</svg>
