<svg xmlns="http://www.w3.org/2000/svg" xmlns:xlink="http://www.w3.org/1999/xlink" width="248" height="257" viewBox="0 0 248 257">
  <defs>
    <clipPath id="clip-FHSD_Asset_LB8">
      <rect width="248" height="257"/>
    </clipPath>
  </defs>
  <g id="FHSD_Asset_LB8" clip-path="url(#clip-FHSD_Asset_LB8)">
    <g id="Group_5" data-name="Group 5" transform="translate(-414.585 -1411.007)">
      <path id="Path_10" data-name="Path 10" d="M190.811,188.422c12.407-9.451,30.26-1.291,38.366,10.031a46.959,46.959,0,0,1,4.008,46.6c-6.819,14.245-21.566,23.746-37.18,25.168-7.85.715-16.341-.412-23.2-4.5-3.311-1.974-6.464-4.894-7.764-8.621a12.725,12.725,0,0,1,.478-9.5,8.469,8.469,0,0,1,7.55-5.171c4.465-.046,8.431,3.028,11.365,6.1a50.049,50.049,0,0,1,11.2,19.524c4.56,14.543,3.3,30.756-2.69,44.708-6.323,14.733-18.008,26.158-32.29,33.244-14.563,7.226-31.283,9.793-47.4,8.239-15.817-1.525-33.266-7.032-43.815-19.582a29.078,29.078,0,0,1-7.159-19.7c.195-6.5,2.539-13.2,7.241-17.808a18.264,18.264,0,0,1,7.9-4.573,1.657,1.657,0,0,0-.88-3.192c-14.75,4.128-20.491,22.292-16.184,35.827,5.419,17.029,23.695,26.35,39.915,30.2a94.045,94.045,0,0,0,52.113-2.391c16.236-5.63,30.9-16.264,39.685-31.218a69.959,69.959,0,0,0,8.434-47.945,56.807,56.807,0,0,0-9.363-22.318c-4.837-6.782-13.4-15.452-22.571-11.474-6.975,3.025-9.114,12.4-6.3,18.956,3.55,8.269,12.815,12.461,21.179,13.951a50.4,50.4,0,0,0,45.913-16.156c11.683-13.39,14.548-33.154,8.22-49.628a41.9,41.9,0,0,0-15.2-19.876c-6.637-4.543-14.937-7.224-23-6.042a22.214,22.214,0,0,0-10.234,4.277,1.712,1.712,0,0,0-.594,2.265,1.664,1.664,0,0,0,2.265.594" transform="translate(400 1270)" fill="#acd7db"/>
      <path id="Path_11" data-name="Path 11" d="M38.928,293.973l47.486-15.946-2.359-2.359a151.739,151.739,0,0,0-9.364,43.356c-.146,2.188,3.208,2.562,3.768.51q.725-2.66,1.451-5.318c.65-2.385-3.049-3.4-3.7-1.02q-.726,2.659-1.451,5.318l3.767.51a148.191,148.191,0,0,1,9.227-42.336,1.93,1.93,0,0,0-2.359-2.359L37.908,290.274c-2.328.782-1.329,4.488,1.02,3.7" transform="translate(400 1270)" fill="#acd7db"/>
    </g>
  </g>
</svg>
