<svg xmlns="http://www.w3.org/2000/svg" xmlns:xlink="http://www.w3.org/1999/xlink" width="248" height="257" viewBox="0 0 248 257">
  <defs>
    <clipPath id="clip-FHSD_Asset_B10">
      <rect width="248" height="257"/>
    </clipPath>
  </defs>
  <g id="FHSD_Asset_B10" clip-path="url(#clip-FHSD_Asset_B10)">
    <path id="Path_24" data-name="Path 24" d="M950.41,374.663q-14.6,25.47-27.9,51.652-13.242,26.067-25.159,52.778-6.747,15.128-13.067,30.44c-.885,2.142,2.183,3.432,3.619,2.106q23.73-21.9,49.53-41.41,25.818-19.485,53.466-36.372,15.529-9.483,31.566-18.094c2.027-1.089.91-3.872-1.092-4.034q-29.136-2.364-58.2-5.556-28.892-3.177-57.683-7.18-16.315-2.273-32.594-4.807l-.576,4.252c9.912-.662,17.975,6.641,24.9,12.76l26.72,23.6L977.2,481.819l30.082,26.565a2.176,2.176,0,0,0,3.4-2.624c-8.177-17.362-16.354-34.726-24.326-52.184-7.958-17.43-15.717-34.954-23.046-52.658q-6.223-15.033-12-30.243a2.226,2.226,0,0,0-2.663-1.512,2.182,2.182,0,0,0-1.513,2.663c6.864,18.115,14.272,36.018,22.009,53.776,7.7,17.668,15.724,35.19,23.868,52.656q6.93,14.862,13.935,29.688l3.4-2.624-54.186-47.85L901.97,409.621c-8.267-7.3-17.744-16.308-29.647-15.513a2.18,2.18,0,0,0-2.126,1.877,2.14,2.14,0,0,0,1.551,2.376q29.047,4.521,58.217,8.213,29.122,3.688,58.343,6.535,16.52,1.609,33.064,2.95l-1.093-4.034q-28.692,15.416-55.769,33.609-26.979,18.137-52.093,38.866Q898.3,496.152,884.84,508.577l3.619,2.107q11.1-26.872,23.551-53.162,12.459-26.318,26.228-51.989,7.752-14.454,15.911-28.685c1.388-2.421-2.352-4.6-3.739-2.185" transform="translate(-823.183 -312.084)" fill="#2c338c"/>
  </g>
</svg>
