<svg xmlns="http://www.w3.org/2000/svg" xmlns:xlink="http://www.w3.org/1999/xlink" width="248" height="257" viewBox="0 0 248 257">
  <defs>
    <clipPath id="clip-FHSD_Asset_LB14">
      <rect width="248" height="257"/>
    </clipPath>
  </defs>
  <g id="FHSD_Asset_LB14" clip-path="url(#clip-FHSD_Asset_LB14)">
    <path id="Path_12" data-name="Path 12" d="M779.913,400.888c-7.8-12.482-27-15.331-37.786-5.082-5.24,4.98-7.729,12.617-7.152,19.751a24.329,24.329,0,0,0,10.733,18.732c5.959,3.951,13.216,5.214,20.138,6.344,3.549.579,7.113,1.129,10.6,2.023a43.264,43.264,0,0,1,4.8,1.527q.223.087.446.179c-.5-.209,0,0,.083.043.383.181.768.356,1.146.547a24.489,24.489,0,0,1,2.2,1.257c.356.229.7.474,1.046.716.072.051.494.384.086.059.125.1.25.2.371.3a22.634,22.634,0,0,1,2.007,1.923,16.661,16.661,0,0,1,2.568,4.022c.243.512-.146-.384.067.141q.094.236.183.476.237.637.43,1.291a24.064,24.064,0,0,1,.609,2.665c.12.679.042.287.024.135q.041.342.07.685.06.688.079,1.379a24.432,24.432,0,0,1-.081,2.773c-.02.231-.044.462-.069.693.016-.151.091-.541-.022.151-.065.4-.136.8-.219,1.2a25.174,25.174,0,0,1-.716,2.7q-.217.666-.47,1.318c-.064.163-.126.326-.2.487.177-.411-.063.119-.085.165a28.588,28.588,0,0,1-1.412,2.606,22.216,22.216,0,0,1-7.493,7.083,28.913,28.913,0,0,1-10.292,3.628c-.245.041-.491.081-.737.116.418-.059-.193.022-.227.026-.5.054-.992.1-1.49.14q-1.492.11-2.992.1a31.329,31.329,0,0,1-5.239-.444c-8.292-1.471-15.87-5.544-22.35-10.8-1.664-1.351-3.265-2.775-4.819-4.25a3.33,3.33,0,1,0-4.71,4.71c12.5,11.868,29.48,20.684,47.07,16.261,7.8-1.961,15.14-6.647,19.3-13.646a27.592,27.592,0,0,0,2.627-22.46c-2.559-7.482-8.508-12.421-15.775-15.087-6.638-2.435-13.79-2.936-20.675-4.336-1.693-.344-3.377-.739-5.033-1.23-.788-.233-1.569-.487-2.341-.769-.408-.149-.814-.3-1.216-.469.5.2-.536-.245-.689-.317a23.619,23.619,0,0,1-4.431-2.661c.417.325-.365-.317-.469-.408q-.486-.424-.941-.881-.4-.4-.767-.819c-.141-.16-.276-.324-.414-.487-.373-.44.037.071-.161-.21a22.247,22.247,0,0,1-1.282-2.013c-.206-.371-.4-.75-.584-1.133-.091-.192-.18-.385-.265-.58.141.324.045.116-.03-.09a23.863,23.863,0,0,1-1.287-4.959c.082.614-.027-.383-.041-.555q-.051-.644-.068-1.288a23.856,23.856,0,0,1,.071-2.578c.014-.167.124-1.139.044-.556.059-.424.134-.848.219-1.268a22.647,22.647,0,0,1,.648-2.483c.131-.406.281-.8.428-1.205.033-.089.249-.586.031-.089q.129-.293.267-.58a20.138,20.138,0,0,1,1.24-2.224c.2-.313.416-.616.631-.919.312-.44-.28.334.062-.085.135-.165.271-.329.41-.49a18.337,18.337,0,0,1,1.816-1.818c.116-.1.864-.685.432-.367.336-.247.679-.484,1.03-.708.7-.449,1.436-.819,2.178-1.2.571-.291.193-.1.056-.038.191-.08.385-.155.578-.227q.58-.217,1.175-.4a21.332,21.332,0,0,1,2.417-.588c.2-.037.409-.07.615-.1-.058.01-.508.061-.112.015q.621-.073,1.245-.112a23.029,23.029,0,0,1,2.506-.021q.549.024,1.1.075.313.028.625.065c-.605-.069-.068-.01.048.011.827.146,1.646.306,2.457.524.758.2,1.5.453,2.236.725.078.029.682.273.328.124s.242.111.318.146c.423.2.843.4,1.255.628a21.293,21.293,0,0,1,1.988,1.22c.132.091.9.673.447.312q.546.433,1.059.909a19.085,19.085,0,0,1,1.615,1.677c.134.159.268.319.4.482-.091-.117-.311-.455.043.076.233.349.471.692.694,1.048a3.331,3.331,0,1,0,5.752-3.362" transform="translate(-639.077 -310.566)" fill="#acd7db"/>
    <path id="Path_13" data-name="Path 13" d="M755.95,380.048a651.617,651.617,0,0,0,1.147,91.164q1.034,12.438,2.58,24.826a1.918,1.918,0,0,0,1.857,1.856,1.864,1.864,0,0,0,1.856-1.856,637.894,637.894,0,0,1-4.687-90.406q.228-12.8.96-25.584c.137-2.387-3.577-2.38-3.713,0" transform="translate(-634.877 -309.26)" fill="#acd7db"/>
  </g>
</svg>
