<svg width="28" height="28" class="" xmlns="http://www.w3.org/2000/svg" viewBox="0 0 28 28" xmlns:xlink="http://www.w3.org/1999/xlink"><path fill="#fff" clip-rule="evenodd" fill-rule="evenodd" d="M3.33329 0.666664H24.6666C26.1394 0.666664 27.3333 1.86057 27.3333 3.33333V24.6667C27.3333 26.1394 26.1394 27.3333 24.6666 27.3333H3.33329C1.86053 27.3333 0.666626 26.1394 0.666626 24.6667V3.33333C0.666626 1.86057 1.86053 0.666664 3.33329 0.666664ZM3.33329 3.33333V24.6667H24.6666V3.33333H3.33329ZM12.844 14.0059H15.3333V22H18V14.0059H20.6432V11.3392H18V10C18 9.26362 18.5969 8.66666 19.3333 8.66666H20.6666V6H19.3333C17.1242 6 15.3333 7.79086 15.3333 10V11.3392H12.844V14.0059Z"></path></svg>