<svg width="28" height="28" class="" xmlns="http://www.w3.org/2000/svg" viewBox="0 0 28 28" xmlns:xlink="http://www.w3.org/1999/xlink"><path fill="#fff" clip-rule="evenodd" fill-rule="evenodd" d="M3.33341 0.666656H24.6667C26.1395 0.666656 27.3334 1.86056 27.3334 3.33332V24.6667C27.3334 26.1394 26.1395 27.3333 24.6667 27.3333H3.33341C1.86066 27.3333 0.666748 26.1394 0.666748 24.6667V3.33332C0.666748 1.86056 1.86066 0.666656 3.33341 0.666656ZM3.33341 3.33332V24.6667H24.6667V3.33332H3.33341ZM15.3334 9.99999C14.6431 9.99999 13.9137 10.211 13.2696 10.6029L12.6667 9.99999H11.3334V19.3333H14.0001V14C14.0001 13.2323 14.792 12.6667 15.3334 12.6667H16.6667C17.2081 12.6667 18.0001 13.2323 18.0001 14V19.3333H20.6667V14C20.6667 11.5296 18.5254 9.99999 16.6667 9.99999H15.3334ZM8.66675 8.66666C9.40313 8.66666 10.0001 8.0697 10.0001 7.33332C10.0001 6.59694 9.40313 5.99999 8.66675 5.99999C7.93037 5.99999 7.33341 6.59694 7.33341 7.33332C7.33341 8.0697 7.93037 8.66666 8.66675 8.66666ZM7.33341 9.99999V19.3333H10.0001V9.99999H7.33341Z"></path></svg>