<svg width="28" height="28" class="" xmlns="http://www.w3.org/2000/svg" viewBox="0 0 28 28" xmlns:xlink="http://www.w3.org/1999/xlink"><path fill="#fff" clip-rule="evenodd" fill-rule="evenodd" d="M26.1593 4.01103L28.0457 4.23132L27.1977 5.93066C26.7842 6.75937 26.3703 7.58807 25.956 8.41677C25.9069 8.59229 25.8205 8.74616 25.6928 8.9465C25.6395 9.0302 25.4572 9.29647 25.4487 9.30926C25.4005 9.38144 25.3649 9.43837 25.3393 9.48398V12.6687C25.3393 20.818 17.4527 25.9966 10.0047 25.9966C8.48064 25.9966 7.32272 25.9235 5.99682 25.6342C3.81483 25.1581 2.19099 24.2115 1.44792 22.5573L0.682907 20.8542L2.54208 20.6833C4.22397 20.5286 5.68221 20.2082 6.80207 19.7791C3.72765 19.2847 2.00476 17.9344 2.00476 15.3985V14.0652H3.33809C3.63104 14.0652 3.8952 14.0414 4.13135 13.9978C1.82396 12.6182 0.668255 10.4051 0.668255 7.33536C0.668003 7.20452 0.668003 7.20452 0.667216 7.06463C0.658548 5.51736 0.741656 4.69062 1.16522 3.63545C1.43668 2.95921 1.82907 2.33318 2.35716 1.75956L3.36331 0.666664L4.34153 1.78462C7.56521 5.46881 10.7519 7.70393 14.0055 7.97429C14.0194 4.57473 16.5887 2.00203 20.0057 2.00203C21.5987 2.00203 23.0437 2.60668 24.1793 3.69696C24.8008 3.82468 25.4608 3.92945 26.1593 4.01103ZM23.2115 6.21602L22.8027 6.12346L22.5204 5.8137C21.8379 5.06473 20.9812 4.66869 20.0057 4.66869C18.0551 4.66869 16.6721 6.05854 16.6721 8.00203C16.6721 8.31965 16.6639 8.51922 16.6244 8.78153C16.4665 9.82822 15.8794 10.6687 14.6721 10.6687C10.6747 10.6687 7.06844 8.52722 3.55182 4.86971C3.37053 5.42081 3.32789 5.9873 3.33385 7.04969C3.33465 7.19178 3.33465 7.19178 3.33493 7.33536C3.33493 10.066 4.44121 11.5597 7.06058 12.3922L7.99004 12.6877V13.6629C7.99004 14.8456 6.86959 15.9589 5.23021 16.4575C5.98171 17.0277 7.51863 17.3354 10.0052 17.3354H11.3385V18.6687C11.3385 20.579 9.14346 22.0747 5.82763 22.8558C6.909 23.1871 8.34884 23.3299 10.0047 23.3299C16.1572 23.3299 22.6726 19.0517 22.6726 12.6687V9.33536C22.6726 8.94365 22.7862 8.60364 22.9748 8.25012C23.0486 8.1119 23.1298 7.98012 23.23 7.82983C23.2489 7.80154 23.3189 7.69902 23.3745 7.61706L23.4801 7.40572C23.6514 7.06326 23.8225 6.72081 23.9936 6.37836C23.7277 6.32799 23.467 6.27388 23.2115 6.21602Z"></path></svg>