<svg width="28" height="28" class="" xmlns="http://www.w3.org/2000/svg" viewBox="0 0 30 21" xmlns:xlink="http://www.w3.org/1999/xlink"><path fill="#fff" clip-rule="evenodd" fill-rule="evenodd" d="M28.3664 19.1709C29.2774 17.6095 29.6667 15.0918 29.6667 10.9963C29.6667 6.91704 29.2811 4.41398 28.3603 2.81071C27.4375 1.14582 26.3431 0.617378 24.1711 0.490537C22.6883 0.390032 19.0031 0.333336 15.0036 0.333336C10.9955 0.333336 7.30863 0.390011 5.81471 0.491325C3.65486 0.61768 2.56019 1.14729 1.62928 2.8168C0.721886 4.41454 0.333374 6.92983 0.333374 11.0112C0.333374 15.0694 0.723767 17.5973 1.63726 19.1898C2.55606 20.8378 3.63328 21.3611 5.81151 21.5141C7.37705 21.6057 11.2726 21.6667 15.0036 21.6667C18.7262 21.6667 22.6199 21.6057 24.1711 21.5151C26.3694 21.3611 27.4464 20.837 28.3664 19.1709ZM24.0033 3.15189C25.3619 3.23129 25.6138 3.3534 26.0445 4.13285C26.6714 5.21866 27 7.34362 27 11.0112C27 14.651 26.6697 16.7877 26.0474 17.8547C25.6153 18.6365 25.3651 18.7583 24.0002 18.8539C22.5319 18.9396 18.676 19 15.0036 19C11.3229 19 7.46503 18.9396 5.98275 18.8529C4.63472 18.7582 4.38091 18.6349 3.95835 17.8771C3.33186 16.7847 3.00004 14.6361 3.00004 10.9963C3.00004 7.35865 3.33009 5.22185 3.95324 4.12456C4.38237 3.35503 4.63796 3.23137 5.98283 3.15266C7.40681 3.05614 11.059 3 15.0036 3C18.9397 3 22.5902 3.05616 24.0033 3.15189ZM12.3334 7L19 11L12.3334 15V7Z"></path></svg>